<?xml version="1.0" encoding="utf-8"?>
<!-- Generator: Adobe Illustrator 27.3.1, SVG Export Plug-In . SVG Version: 6.00 Build 0)  -->
<svg version="1.1" id="Calque_1" xmlns="http://www.w3.org/2000/svg" xmlns:xlink="http://www.w3.org/1999/xlink" x="0px" y="0px"
	 width="361.7px" height="133.9px" viewBox="0 0 361.7 133.9" style="enable-background:new 0 0 361.7 133.9;" xml:space="preserve"
	>
<style type="text/css">
	.st0{fill:#EC6164;}
</style>
<image style="display:none;overflow:visible;" width="406" height="162" xlink:href="B28D5C5B.jpg"  transform="matrix(1 0 0 1 -22.2778 -14.5)">
</image>
<g>
	<path class="st0" d="M41.7,67.5L23.4,86.2v26.3H8.9V11h14.4v56.8L78,11h16.5l-43,45.6l46,55.9H80.7L41.7,67.5z"/>
	<path class="st0" d="M203.8,103.9l5.6-10.7c6.5,4.5,16.6,7.7,26.3,7.7c12.7,0,17.7-3.9,17.7-10.4c0-17-47.6-2.4-47.6-32.4
		c0-13.7,12.1-22.6,31.3-22.6c9.8,0,21,2.7,27.5,6.8L258.8,53c-6.8-4.5-14.2-5.9-21.6-5.9c-11.8,0-17.7,4.5-17.7,10.4
		c0,17.8,47.6,3.3,47.6,32.7c0,13.7-12.4,22.3-32.5,22.3C222.4,112.8,210,108.9,203.8,103.9z"/>
	<path class="st0" d="M352.8,65.1v46.8h-13.3v-10.3c-4.5,7-13.3,10.9-25.4,10.9c-17.5,0-28.4-9.4-28.4-22.8
		c0-12.5,7.9-22.5,30.8-22.5h22.1v-2.7c0-11.9-6.9-18.5-20.5-18.5c-9.1,0-18.4,3.3-24.5,8.2l-5.7-10.6c7.9-6.4,19.3-10,31.7-10
		C341,33.8,352.8,44.1,352.8,65.1z M338.9,88.2V77.3h-21.5c-13.9,0-17.8,5.5-17.8,11.9c0,7.6,6.3,12.5,16.9,12.5
		C327.1,101.9,335.6,97.3,338.9,88.2z"/>
	<path class="st0" d="M158.5,92.8v19.8l8.4-5V87.8L158.5,92.8z"/>
	<path class="st0" d="M183.5,67.8l-36-21l-20-11.6l-19.7,34.4l0.3,32.3l35.7,21l3.6-2.1V90.3L163.5,62l16.4,9.4v30.5l3.6-2.1V67.8z"
		/>
</g>
</svg>
